<?xml version="1.0" encoding="utf-8"?>
<!-- Generator: Adobe Illustrator 25.0.0, SVG Export Plug-In . SVG Version: 6.00 Build 0)  -->
<svg version="1.1" id="Layer_1" xmlns="http://www.w3.org/2000/svg" xmlns:xlink="http://www.w3.org/1999/xlink" x="0px" y="0px"
	 viewBox="0 0 1139.2 1031.5" style="enable-background:new 0 0 1139.2 1031.5;" xml:space="preserve">
<path d="M570.8,12.1c144.8,0,289.5,0,434.2,0c8.6,0,17.2,0.2,25.7,1.5c42.7,6.4,74.1,28.9,93.8,66.8c19.5,37.5,19.2,75.8,0.7,113.8
	c-2,4.1-4.4,8-6.7,11.9C972.9,458.3,827.2,710.5,681.5,962.8c-2.3,3.9-4.5,7.9-7,11.7c-19.7,29.7-47.1,47.7-82.2,54.8
	c-41.2,8.4-98.2-6.5-129.3-57c-2.9-4.7-5.6-9.6-8.4-14.4C310.9,709.1,167.3,460.4,23.6,211.6c-3-5.2-6.1-10.5-9-15.9
	C4.5,176.6-0.7,156.1,0.1,134.5C1.8,81,37.6,29.5,97.3,15.4c8.8-2.1,17.9-3.3,27.1-3.3c5.1,0,10.1,0,15.2,0
	C283.3,12.1,427.1,12.1,570.8,12.1z"/>
</svg>
